<mxfile host="Electron" agent="Mozilla/5.0 (Windows NT 10.0; Win64; x64) AppleWebKit/537.36 (KHTML, like Gecko) draw.io/28.1.2 Chrome/138.0.7204.243 Electron/37.4.0 Safari/537.36" version="28.1.2">
  <diagram name="Page-1" id="0-xzM59fvYLE145vYj9E">
    <mxGraphModel dx="2835" dy="2956" grid="1" gridSize="10" guides="1" tooltips="1" connect="1" arrows="1" fold="1" page="1" pageScale="1" pageWidth="850" pageHeight="1100" math="0" shadow="0">
      <root>
        <mxCell id="0" />
        <mxCell id="1" parent="0" />
        <mxCell id="R0HyXD6rpBXpjfjKwFqV-43" value="" style="rounded=1;whiteSpace=wrap;html=1;fillColor=none;" vertex="1" parent="1">
          <mxGeometry x="740" y="110" width="780" height="575" as="geometry" />
        </mxCell>
        <mxCell id="R0HyXD6rpBXpjfjKwFqV-44" value="&lt;font style=&quot;font-size: 24px;&quot;&gt;ERP&lt;/font&gt;" style="rounded=1;whiteSpace=wrap;html=1;" vertex="1" parent="1">
          <mxGeometry x="1070" y="80" width="120" height="60" as="geometry" />
        </mxCell>
        <mxCell id="R0HyXD6rpBXpjfjKwFqV-41" value="" style="rounded=1;whiteSpace=wrap;html=1;fillColor=none;" vertex="1" parent="1">
          <mxGeometry x="-140" y="110" width="780" height="575" as="geometry" />
        </mxCell>
        <mxCell id="R0HyXD6rpBXpjfjKwFqV-1" value="&lt;font style=&quot;font-size: 48px;&quot;&gt;&lt;b style=&quot;&quot;&gt;Integration Model&lt;/b&gt;&lt;/font&gt;" style="text;html=1;align=center;verticalAlign=middle;whiteSpace=wrap;rounded=0;" vertex="1" parent="1">
          <mxGeometry x="-200" y="-30" width="420" height="64.25" as="geometry" />
        </mxCell>
        <mxCell id="R0HyXD6rpBXpjfjKwFqV-2" value="&lt;font style=&quot;font-size: 16px;&quot;&gt;(how tables are related)&lt;/font&gt;" style="text;html=1;align=center;verticalAlign=middle;whiteSpace=wrap;rounded=0;" vertex="1" parent="1">
          <mxGeometry x="220" y="-12.88" width="200" height="30" as="geometry" />
        </mxCell>
        <mxCell id="R0HyXD6rpBXpjfjKwFqV-3" value="crm_cust_info" style="swimlane;fontStyle=0;childLayout=stackLayout;horizontal=1;startSize=30;horizontalStack=0;resizeParent=1;resizeParentMax=0;resizeLast=0;collapsible=1;marginBottom=0;whiteSpace=wrap;html=1;rounded=1;fillColor=#1ba1e2;fontColor=#ffffff;strokeColor=#006EAF;fontSize=26;" vertex="1" parent="1">
          <mxGeometry x="290" y="450" width="240" height="140" as="geometry" />
        </mxCell>
        <mxCell id="R0HyXD6rpBXpjfjKwFqV-4" value="cst_id" style="text;strokeColor=none;fillColor=none;align=left;verticalAlign=middle;spacingLeft=4;spacingRight=4;overflow=hidden;points=[[0,0.5],[1,0.5]];portConstraint=eastwest;rotatable=0;whiteSpace=wrap;html=1;fontSize=26;" vertex="1" parent="R0HyXD6rpBXpjfjKwFqV-3">
          <mxGeometry y="30" width="240" height="40" as="geometry" />
        </mxCell>
        <mxCell id="R0HyXD6rpBXpjfjKwFqV-30" value="cst_key" style="text;strokeColor=none;fillColor=none;align=left;verticalAlign=middle;spacingLeft=4;spacingRight=4;overflow=hidden;points=[[0,0.5],[1,0.5]];portConstraint=eastwest;rotatable=0;whiteSpace=wrap;html=1;fontSize=26;" vertex="1" parent="R0HyXD6rpBXpjfjKwFqV-3">
          <mxGeometry y="70" width="240" height="40" as="geometry" />
        </mxCell>
        <mxCell id="R0HyXD6rpBXpjfjKwFqV-47" value="&lt;font style=&quot;font-size: 20px;&quot;&gt;&lt;b&gt;CUSTOMER&lt;/b&gt;&lt;/font&gt;" style="text;html=1;strokeColor=#2D7600;fillColor=#60a917;align=center;verticalAlign=middle;whiteSpace=wrap;overflow=hidden;fontColor=#ffffff;" vertex="1" parent="R0HyXD6rpBXpjfjKwFqV-3">
          <mxGeometry y="110" width="240" height="30" as="geometry" />
        </mxCell>
        <mxCell id="R0HyXD6rpBXpjfjKwFqV-7" value="&lt;font style=&quot;font-size: 20px;&quot;&gt;Customer Information&lt;/font&gt;" style="text;html=1;align=center;verticalAlign=middle;whiteSpace=wrap;rounded=0;" vertex="1" parent="1">
          <mxGeometry x="310" y="420" width="200" height="30" as="geometry" />
        </mxCell>
        <mxCell id="R0HyXD6rpBXpjfjKwFqV-10" value="crm_prd_info" style="swimlane;fontStyle=0;childLayout=stackLayout;horizontal=1;startSize=30;horizontalStack=0;resizeParent=1;resizeParentMax=0;resizeLast=0;collapsible=1;marginBottom=0;whiteSpace=wrap;html=1;rounded=1;fillColor=#1ba1e2;fontColor=#ffffff;strokeColor=#006EAF;fontSize=26;" vertex="1" parent="1">
          <mxGeometry x="300" y="270" width="240" height="100" as="geometry" />
        </mxCell>
        <mxCell id="R0HyXD6rpBXpjfjKwFqV-11" value="prd_key" style="text;strokeColor=none;fillColor=none;align=left;verticalAlign=middle;spacingLeft=4;spacingRight=4;overflow=hidden;points=[[0,0.5],[1,0.5]];portConstraint=eastwest;rotatable=0;whiteSpace=wrap;html=1;fontSize=26;" vertex="1" parent="R0HyXD6rpBXpjfjKwFqV-10">
          <mxGeometry y="30" width="240" height="40" as="geometry" />
        </mxCell>
        <mxCell id="R0HyXD6rpBXpjfjKwFqV-45" value="&lt;font style=&quot;font-size: 20px;&quot;&gt;&lt;b&gt;PRODUCT&lt;/b&gt;&lt;/font&gt;" style="text;html=1;strokeColor=#6F0000;fillColor=#a20025;align=center;verticalAlign=middle;whiteSpace=wrap;overflow=hidden;fontColor=#ffffff;" vertex="1" parent="R0HyXD6rpBXpjfjKwFqV-10">
          <mxGeometry y="70" width="240" height="30" as="geometry" />
        </mxCell>
        <mxCell id="R0HyXD6rpBXpjfjKwFqV-12" value="&lt;font style=&quot;font-size: 20px;&quot;&gt;Current &amp;amp; History Product Information&lt;/font&gt;" style="text;html=1;align=center;verticalAlign=middle;whiteSpace=wrap;rounded=0;" vertex="1" parent="1">
          <mxGeometry x="235" y="240" width="350" height="30" as="geometry" />
        </mxCell>
        <mxCell id="R0HyXD6rpBXpjfjKwFqV-15" value="crm_sales_details" style="swimlane;fontStyle=0;childLayout=stackLayout;horizontal=1;startSize=30;horizontalStack=0;resizeParent=1;resizeParentMax=0;resizeLast=0;collapsible=1;marginBottom=0;whiteSpace=wrap;html=1;rounded=1;fillColor=#1ba1e2;fontColor=#ffffff;strokeColor=#006EAF;fontSize=26;" vertex="1" parent="1">
          <mxGeometry x="-110" y="330" width="240" height="140" as="geometry" />
        </mxCell>
        <mxCell id="R0HyXD6rpBXpjfjKwFqV-16" value="prd_key" style="text;strokeColor=none;fillColor=none;align=left;verticalAlign=middle;spacingLeft=4;spacingRight=4;overflow=hidden;points=[[0,0.5],[1,0.5]];portConstraint=eastwest;rotatable=0;whiteSpace=wrap;html=1;fontSize=26;" vertex="1" parent="R0HyXD6rpBXpjfjKwFqV-15">
          <mxGeometry y="30" width="240" height="40" as="geometry" />
        </mxCell>
        <mxCell id="R0HyXD6rpBXpjfjKwFqV-18" value="cst_id" style="text;strokeColor=none;fillColor=none;align=left;verticalAlign=middle;spacingLeft=4;spacingRight=4;overflow=hidden;points=[[0,0.5],[1,0.5]];portConstraint=eastwest;rotatable=0;whiteSpace=wrap;html=1;fontSize=26;" vertex="1" parent="R0HyXD6rpBXpjfjKwFqV-15">
          <mxGeometry y="70" width="240" height="40" as="geometry" />
        </mxCell>
        <mxCell id="R0HyXD6rpBXpjfjKwFqV-50" value="&lt;span style=&quot;font-size: 20px;&quot;&gt;&lt;b&gt;SALES&lt;/b&gt;&lt;/span&gt;" style="text;html=1;strokeColor=#3700CC;fillColor=#6a00ff;align=center;verticalAlign=middle;whiteSpace=wrap;overflow=hidden;fontColor=#ffffff;" vertex="1" parent="R0HyXD6rpBXpjfjKwFqV-15">
          <mxGeometry y="110" width="240" height="30" as="geometry" />
        </mxCell>
        <mxCell id="R0HyXD6rpBXpjfjKwFqV-17" value="&lt;font style=&quot;font-size: 20px;&quot;&gt;Transactional Records about Sales &amp;amp; Orders&lt;/font&gt;" style="text;html=1;align=center;verticalAlign=middle;whiteSpace=wrap;rounded=0;" vertex="1" parent="1">
          <mxGeometry x="-137.5" y="270" width="295" height="60" as="geometry" />
        </mxCell>
        <mxCell id="R0HyXD6rpBXpjfjKwFqV-23" style="edgeStyle=orthogonalEdgeStyle;rounded=0;orthogonalLoop=1;jettySize=auto;html=1;entryX=0;entryY=0.5;entryDx=0;entryDy=0;" edge="1" parent="1" source="R0HyXD6rpBXpjfjKwFqV-18" target="R0HyXD6rpBXpjfjKwFqV-4">
          <mxGeometry relative="1" as="geometry" />
        </mxCell>
        <mxCell id="R0HyXD6rpBXpjfjKwFqV-24" style="edgeStyle=orthogonalEdgeStyle;rounded=0;orthogonalLoop=1;jettySize=auto;html=1;entryX=0;entryY=0.5;entryDx=0;entryDy=0;" edge="1" parent="1" source="R0HyXD6rpBXpjfjKwFqV-16" target="R0HyXD6rpBXpjfjKwFqV-11">
          <mxGeometry relative="1" as="geometry" />
        </mxCell>
        <mxCell id="R0HyXD6rpBXpjfjKwFqV-27" value="erp_cust_az12" style="swimlane;fontStyle=0;childLayout=stackLayout;horizontal=1;startSize=30;horizontalStack=0;resizeParent=1;resizeParentMax=0;resizeLast=0;collapsible=1;marginBottom=0;whiteSpace=wrap;html=1;rounded=1;fillColor=#f0a30a;strokeColor=#BD7000;fontSize=26;fontColor=#000000;" vertex="1" parent="1">
          <mxGeometry x="1010" y="377.5" width="240" height="100" as="geometry" />
        </mxCell>
        <mxCell id="R0HyXD6rpBXpjfjKwFqV-28" value="cid" style="text;strokeColor=none;fillColor=none;align=left;verticalAlign=middle;spacingLeft=4;spacingRight=4;overflow=hidden;points=[[0,0.5],[1,0.5]];portConstraint=eastwest;rotatable=0;whiteSpace=wrap;html=1;fontSize=26;" vertex="1" parent="R0HyXD6rpBXpjfjKwFqV-27">
          <mxGeometry y="30" width="240" height="40" as="geometry" />
        </mxCell>
        <mxCell id="R0HyXD6rpBXpjfjKwFqV-49" value="&lt;font style=&quot;font-size: 20px;&quot;&gt;&lt;b&gt;CUSTOMER&lt;/b&gt;&lt;/font&gt;" style="text;html=1;strokeColor=#2D7600;fillColor=#60a917;align=center;verticalAlign=middle;whiteSpace=wrap;overflow=hidden;fontColor=#ffffff;" vertex="1" parent="R0HyXD6rpBXpjfjKwFqV-27">
          <mxGeometry y="70" width="240" height="30" as="geometry" />
        </mxCell>
        <mxCell id="R0HyXD6rpBXpjfjKwFqV-29" value="&lt;font style=&quot;font-size: 20px;&quot;&gt;Extra Cust Info (Birthdates)&lt;/font&gt;" style="text;html=1;align=center;verticalAlign=middle;whiteSpace=wrap;rounded=0;" vertex="1" parent="1">
          <mxGeometry x="955" y="347.5" width="350" height="30" as="geometry" />
        </mxCell>
        <mxCell id="R0HyXD6rpBXpjfjKwFqV-31" style="edgeStyle=orthogonalEdgeStyle;rounded=0;orthogonalLoop=1;jettySize=auto;html=1;entryX=1;entryY=0.5;entryDx=0;entryDy=0;" edge="1" parent="1" source="R0HyXD6rpBXpjfjKwFqV-28" target="R0HyXD6rpBXpjfjKwFqV-30">
          <mxGeometry relative="1" as="geometry" />
        </mxCell>
        <mxCell id="R0HyXD6rpBXpjfjKwFqV-32" value="erp_loc_a101" style="swimlane;fontStyle=0;childLayout=stackLayout;horizontal=1;startSize=30;horizontalStack=0;resizeParent=1;resizeParentMax=0;resizeLast=0;collapsible=1;marginBottom=0;whiteSpace=wrap;html=1;rounded=1;fillColor=#f0a30a;strokeColor=#BD7000;fontSize=26;fontColor=#000000;" vertex="1" parent="1">
          <mxGeometry x="1010" y="560" width="240" height="100" as="geometry" />
        </mxCell>
        <mxCell id="R0HyXD6rpBXpjfjKwFqV-33" value="cid" style="text;strokeColor=none;fillColor=none;align=left;verticalAlign=middle;spacingLeft=4;spacingRight=4;overflow=hidden;points=[[0,0.5],[1,0.5]];portConstraint=eastwest;rotatable=0;whiteSpace=wrap;html=1;fontSize=26;" vertex="1" parent="R0HyXD6rpBXpjfjKwFqV-32">
          <mxGeometry y="30" width="240" height="40" as="geometry" />
        </mxCell>
        <mxCell id="R0HyXD6rpBXpjfjKwFqV-48" value="&lt;font style=&quot;font-size: 20px;&quot;&gt;&lt;b&gt;CUSTOMER&lt;/b&gt;&lt;/font&gt;" style="text;html=1;strokeColor=#2D7600;fillColor=#60a917;align=center;verticalAlign=middle;whiteSpace=wrap;overflow=hidden;fontColor=#ffffff;" vertex="1" parent="R0HyXD6rpBXpjfjKwFqV-32">
          <mxGeometry y="70" width="240" height="30" as="geometry" />
        </mxCell>
        <mxCell id="R0HyXD6rpBXpjfjKwFqV-36" value="erp_px_cat_g1v2" style="swimlane;fontStyle=0;childLayout=stackLayout;horizontal=1;startSize=30;horizontalStack=0;resizeParent=1;resizeParentMax=0;resizeLast=0;collapsible=1;marginBottom=0;whiteSpace=wrap;html=1;rounded=1;fillColor=#f0a30a;strokeColor=#BD7000;fontSize=26;fontColor=#000000;" vertex="1" parent="1">
          <mxGeometry x="1020" y="220" width="240" height="100" as="geometry" />
        </mxCell>
        <mxCell id="R0HyXD6rpBXpjfjKwFqV-38" value="id" style="text;strokeColor=none;fillColor=none;align=left;verticalAlign=middle;spacingLeft=4;spacingRight=4;overflow=hidden;points=[[0,0.5],[1,0.5]];portConstraint=eastwest;rotatable=0;whiteSpace=wrap;html=1;fontSize=26;" vertex="1" parent="R0HyXD6rpBXpjfjKwFqV-36">
          <mxGeometry y="30" width="240" height="40" as="geometry" />
        </mxCell>
        <mxCell id="R0HyXD6rpBXpjfjKwFqV-46" value="&lt;font style=&quot;font-size: 20px;&quot;&gt;&lt;b&gt;PRODUCT&lt;/b&gt;&lt;/font&gt;" style="text;html=1;strokeColor=#6F0000;fillColor=#a20025;align=center;verticalAlign=middle;whiteSpace=wrap;overflow=hidden;fontColor=#ffffff;" vertex="1" parent="R0HyXD6rpBXpjfjKwFqV-36">
          <mxGeometry y="70" width="240" height="30" as="geometry" />
        </mxCell>
        <mxCell id="R0HyXD6rpBXpjfjKwFqV-39" value="&lt;font style=&quot;font-size: 20px;&quot;&gt;Product Categories&lt;/font&gt;" style="text;html=1;align=center;verticalAlign=middle;whiteSpace=wrap;rounded=0;" vertex="1" parent="1">
          <mxGeometry x="955" y="190" width="350" height="30" as="geometry" />
        </mxCell>
        <mxCell id="R0HyXD6rpBXpjfjKwFqV-37" style="edgeStyle=orthogonalEdgeStyle;rounded=0;orthogonalLoop=1;jettySize=auto;html=1;entryX=1;entryY=0.5;entryDx=0;entryDy=0;" edge="1" parent="1" source="R0HyXD6rpBXpjfjKwFqV-38" target="R0HyXD6rpBXpjfjKwFqV-11">
          <mxGeometry relative="1" as="geometry">
            <mxPoint x="610" y="180" as="targetPoint" />
          </mxGeometry>
        </mxCell>
        <mxCell id="R0HyXD6rpBXpjfjKwFqV-42" value="&lt;font style=&quot;font-size: 24px;&quot;&gt;CRM&lt;/font&gt;" style="rounded=1;whiteSpace=wrap;html=1;" vertex="1" parent="1">
          <mxGeometry x="190" y="80" width="120" height="60" as="geometry" />
        </mxCell>
        <mxCell id="R0HyXD6rpBXpjfjKwFqV-35" style="edgeStyle=orthogonalEdgeStyle;rounded=0;orthogonalLoop=1;jettySize=auto;html=1;entryX=1;entryY=0.5;entryDx=0;entryDy=0;" edge="1" parent="1" source="R0HyXD6rpBXpjfjKwFqV-33" target="R0HyXD6rpBXpjfjKwFqV-30">
          <mxGeometry relative="1" as="geometry">
            <mxPoint x="775" y="610" as="targetPoint" />
          </mxGeometry>
        </mxCell>
        <mxCell id="R0HyXD6rpBXpjfjKwFqV-34" value="&lt;font style=&quot;font-size: 20px;&quot;&gt;Location of Customers (Country)&lt;/font&gt;" style="text;html=1;align=center;verticalAlign=middle;whiteSpace=wrap;rounded=0;" vertex="1" parent="1">
          <mxGeometry x="1010" y="520" width="240" height="30" as="geometry" />
        </mxCell>
      </root>
    </mxGraphModel>
  </diagram>
</mxfile>
